HIERARCHY
ROOT Hips
{
 OFFSET 0.000000 0.000000 0.000000
 CHANNELS 6 Xposition Yposition Zposition Yrotation Xrotation Zrotation
 JOINT Chest
 {
  OFFSET 0.000000 14.374500 -0.011500
  CHANNELS 3 Yrotation Xrotation Zrotation
  JOINT Chest2
  {
   OFFSET 0.000000 9.203400 0.023400
   CHANNELS 3 Yrotation Xrotation Zrotation
   JOINT Chest3
   {
    OFFSET 0.000000 9.162700 0.000000
    CHANNELS 3 Yrotation Xrotation Zrotation
    JOINT Chest4
    {
     OFFSET 0.000000 9.153300 0.000000
     CHANNELS 3 Yrotation Xrotation Zrotation
     JOINT Neck
     {
      OFFSET 0.000000 13.353600 0.000000
      CHANNELS 3 Yrotation Xrotation Zrotation
      JOINT Head
      {
       OFFSET 0.000000 8.573800 0.049400
       CHANNELS 3 Yrotation Xrotation Zrotation
       End Site
       {
        OFFSET 0.000000 16.219200 0.026100
       }
      }
     }
     JOINT RightCollar
     {
      OFFSET -2.497100 8.876100 0.000000
      CHANNELS 3 Yrotation Xrotation Zrotation
      JOINT RightShoulder
      {
       OFFSET -12.289200 0.000000 0.000000
       CHANNELS 3 Yrotation Xrotation Zrotation
       JOINT RightElbow
       {
        OFFSET 0.000000 -28.194900 0.000000
        CHANNELS 3 Yrotation Xrotation Zrotation
        JOINT RightWrist
        {
         OFFSET 0.000000 -23.009700 0.007900
         CHANNELS 3 Yrotation Xrotation Zrotation
         End Site
         {
          OFFSET 0.000000 -17.151500 0.000000
         }
        }
       }
      }
     }
     JOINT LeftCollar
     {
      OFFSET 2.497100 8.876100 0.000000
      CHANNELS 3 Yrotation Xrotation Zrotation
      JOINT LeftShoulder
      {
       OFFSET 12.289200 0.000000 0.000000
       CHANNELS 3 Yrotation Xrotation Zrotation
       JOINT LeftElbow
       {
        OFFSET 0.000000 -28.194900 0.000000
        CHANNELS 3 Yrotation Xrotation Zrotation
        JOINT LeftWrist
        {
         OFFSET 0.000000 -23.009700 0.007900
         CHANNELS 3 Yrotation Xrotation Zrotation
         End Site
         {
          OFFSET 0.000000 -17.151500 0.000000
         }
        }
       }
      }
     }
    }
   }
  }
 }
 JOINT RightHip
 {
  OFFSET -11.777600 0.056700 0.005700
  CHANNELS 3 Yrotation Xrotation Zrotation
  JOINT RightKnee
  {
   OFFSET 0.000000 -39.966000 -0.004200
   CHANNELS 3 Yrotation Xrotation Zrotation
   JOINT RightAnkle
   {
    OFFSET 0.000000 -41.981900 0.027400
    CHANNELS 3 Yrotation Xrotation Zrotation
    JOINT RightToe
    {
     OFFSET 0.000000 -9.910600 16.950100
     CHANNELS 3 Yrotation Xrotation Zrotation
     End Site
     {
      OFFSET 0.000000 -1.461000 6.191600
     }
    }
   }
  }
 }
 JOINT LeftHip
 {
  OFFSET 11.777600 0.056700 0.005700
  CHANNELS 3 Yrotation Xrotation Zrotation
  JOINT LeftKnee
  {
   OFFSET 0.000000 -39.966000 -0.004200
   CHANNELS 3 Yrotation Xrotation Zrotation
   JOINT LeftAnkle
   {
    OFFSET 0.000000 -41.981900 0.027400
    CHANNELS 3 Yrotation Xrotation Zrotation
    JOINT LeftToe
    {
     OFFSET 0.000000 -9.910600 16.950100
     CHANNELS 3 Yrotation Xrotation Zrotation
     End Site
     {
      OFFSET 0.000000 -1.461000 6.191600
     }
    }
   }
  }
 }
}
MOTION
Frames: 8
Frame Time: 0.008333
0.671106 130.442379 51.961355 177.125480 -47.645047 -3.930513 5.209389 28.963302 4.079790 0.799273 5.523840 0.547476 1.278044 8.638536 0.893600 3.918279 23.238493 2.982288 -2.571539 21.446620 0.813198 -2.940996 -2.797681 1.458176 3.665689 -6.773259 0.565293 27.356327 -34.929714 -9.958420 -124.766221 -43.496186 160.160459 -1.048695 -1.346510 -27.441945 -13.870015 -6.219161 2.580024 -4.644933 -24.695053 0.897494 -25.323295 -52.620048 9.236058 -12.778510 -8.229944 17.202136 7.246256 -29.971714 1.536713 -78.571704 83.960294 -81.270835 -0.191832 -25.436684 9.367278 0.000101 -0.007883 0.000059 -2.172207 -27.640967 -4.778782 110.155333 76.630050 120.037844 7.810719 -7.277885 -7.381040 0.000803 0.002340 0.000469
0.670757 130.443149 51.959180 177.128583 -47.640247 -3.934729 5.212897 28.976923 4.079509 0.799353 5.526672 0.547095 1.277910 8.642862 0.892913 3.916663 23.243437 2.979542 -2.574969 21.504689 0.815000 -2.936985 -2.807457 1.466129 3.661012 -6.746905 0.568719 27.363054 -34.899773 -9.928401 -124.830384 -43.503205 160.177751 -1.036578 -1.341818 -27.397793 -13.867113 -6.240244 2.591468 -4.641873 -24.669447 0.889628 -25.258598 -52.677284 9.184520 -12.745418 -8.237796 17.211212 7.245449 -29.975614 1.542062 -78.566166 83.962056 -81.268697 -0.192916 -25.430413 9.364834 -0.001979 -0.007901 -0.001157 -2.171093 -27.645452 -4.773861 110.164395 76.632230 120.047084 7.810645 -7.278673 -7.382615 0.004136 0.000216 0.002419
0.670174 130.442932 51.957941 177.140817 -47.630231 -3.944607 5.209258 28.990857 4.077707 0.797620 5.522328 0.546923 1.276942 8.663930 0.890474 3.911254 23.230035 2.975529 -2.568467 21.498953 0.820334 -2.950871 -2.750672 1.473751 3.661336 -6.673783 0.563185 27.372522 -34.955355 -9.938652 -124.848921 -43.510999 160.188695 -1.026082 -1.319769 -27.413347 -13.852408 -6.240518 2.587713 -4.644879 -24.665668 0.894391 -25.198728 -52.727359 9.130840 -12.739095 -8.239068 17.223008 7.245550 -29.981533 1.549381 -78.534386 83.949170 -81.235884 -0.194376 -25.422816 9.364185 -0.000690 -0.005282 -0.000404 -2.178132 -27.654836 -4.771174 110.166985 76.631854 120.049509 7.800122 -7.283334 -7.383351 0.002886 0.000611 0.001688
0.668588 130.441928 51.957466 177.145071 -47.616496 -3.944940 5.204696 28.984400 4.073164 0.798125 5.531204 0.545910 1.276823 8.662409 0.891673 3.908031 23.238673 2.971188 -2.568953 21.497390 0.824405 -2.970181 -2.711821 1.486362 3.655069 -6.652220 0.563500 27.360840 -34.957974 -9.924927 -124.867875 -43.514235 160.202473 -1.014283 -1.285950 -27.441476 -13.833248 -6.217047 2.573575 -4.654516 -24.686230 0.907891 -25.186764 -52.759247 9.113898 -12.716772 -8.243586 17.229695 7.245762 -29.994698 1.545746 -78.497394 83.950134 -81.199388 -0.196272 -25.413527 9.359799 -0.001880 -0.003733 -0.001099 -2.179905 -27.668345 -4.773029 110.164821 76.627683 120.043062 7.793297 -7.286126 -7.389374 -0.000025 0.002388 -0.000015
0.667646 130.442847 51.955435 177.148194 -47.613462 -3.947230 5.203991 28.992626 4.074347 0.797934 5.532402 0.545931 1.277598 8.660883 0.889626 3.906474 23.243859 2.972904 -2.586824 21.532349 0.831278 -2.981112 -2.709113 1.493818 3.648984 -6.626615 0.561033 27.348423 -34.958998 -9.915299 -124.894744 -43.514926 160.221212 -1.002373 -1.263465 -27.460208 -13.820845 -6.205481 2.562657 -4.662308 -24.702402 0.917717 -25.156590 -52.780599 9.081801 -12.697184 -8.246311 17.236228 7.247692 -29.994662 1.549350 -78.482388 83.951346 -81.183514 -0.204692 -25.412185 9.360203 -0.001360 -0.002761 -0.000795 -2.179650 -27.669628 -4.773426 110.162486 76.635182 120.039953 7.802237 -7.281946 -7.392472 0.001129 0.000387 0.000660
0.667472 130.442678 51.954602 177.155803 -47.604627 -3.956741 5.203864 28.992549 4.078326 0.797690 5.532683 0.546155 1.277706 8.661194 0.887908 3.906039 23.254334 2.974871 -2.592235 21.527309 0.836654 -3.006743 -2.678315 1.511547 3.647557 -6.610763 0.561464 27.347737 -34.973546 -9.922029 -124.911008 -43.514989 160.232451 -0.985672 -1.245323 -27.488616 -13.815732 -6.214104 2.564276 -4.660906 -24.702852 0.918024 -25.085299 -52.809771 9.008489 -12.728699 -8.236782 17.248668 7.241420 -30.003654 1.558044 -78.481323 83.954577 -81.182344 -0.215740 -25.409029 9.359125 0.000521 -0.003133 0.000304 -2.183740 -27.677040 -4.771118 110.159223 76.642041 120.041701 7.810240 -7.277910 -7.397393 0.003802 -0.000252 0.002223
0.667235 130.441293 51.955022 177.174536 -47.588707 -3.974894 5.202126 28.993892 4.076963 0.797604 5.533425 0.546997 1.274726 8.649853 0.894416 3.905112 23.252202 2.976418 -2.607933 21.548440 0.844844 -3.023400 -2.669342 1.523137 3.646494 -6.585185 0.563242 27.347343 -34.983943 -9.929255 -124.930047 -43.515655 160.244553 -0.986018 -1.243031 -27.486897 -13.809484 -6.208221 2.564344 -4.640134 -24.696871 0.905318 -24.998270 -52.854739 8.914552 -12.785827 -8.219303 17.256594 7.226271 -30.020094 1.562546 -78.508438 83.954781 -81.208944 -0.213524 -25.410704 9.353018 0.001236 -0.005636 0.000723 -2.194266 -27.694984 -4.771406 110.160064 76.639770 120.049106 7.800253 -7.279675 -7.392162 0.000462 0.000117 0.000270
0.666733 130.441820 51.953715 177.174809 -47.584361 -3.978018 5.206229 28.997159 4.075790 0.798263 5.534095 0.547007 1.274223 8.643242 0.899233 3.905527 23.254885 2.976138 -2.637438 21.580768 0.854433 -3.019232 -2.686969 1.523386 3.642686 -6.564730 0.562528 27.346477 -34.973977 -9.927903 -124.993998 -43.514600 160.287241 -0.969771 -1.219100 -27.530465 -13.786925 -6.183329 2.555126 -4.628735 -24.704018 0.895769 -25.014183 -52.880880 8.903155 -12.772596 -8.222179 17.268508 7.226439 -30.025543 1.563461 -78.540480 83.956325 -81.237456 -0.214032 -25.413581 9.350447 0.000729 -0.006959 0.000426 -2.188765 -27.693113 -4.783900 110.121497 76.633910 120.022467 7.812005 -7.279381 -7.396970 0.000123 0.002585 0.000072
